<svg xmlns="http://www.w3.org/2000/svg" width="1500" height="560" preserveAspectRatio="none"><g mask="url(&quot;#SvgjsMask1470&quot;)" fill="none"><path fill="rgba(203, 11, 12, 1)" d="M0 0h1500v560H0z"/><path d="M923.591 205.828c30.04-.215 61.41-8.449 76.794-34.252 15.69-26.316 10.371-59.288-5.343-85.589-15.275-25.566-41.69-44.066-71.451-42.94-28.184 1.066-48.026 23.905-62.665 48.013-15.427 25.406-30.302 55.542-16.058 81.63 14.624 26.783 48.209 33.356 78.723 33.138" fill="rgba(255, 255, 255, 0.24)" style="animation:float3 6s infinite"/><path d="M1154.421 383.289c42.478-.503 80.182-23.855 102.747-59.848 24.24-38.665 36.286-86.91 14.346-126.925-22.636-41.285-70.011-60.141-117.093-60.472-47.736-.336-96.539 17.22-119.983 58.804-23.11 40.991-12.343 91.384 12.931 131.078 23.305 36.602 63.664 57.877 107.052 57.363m-593.2-189.52c40.676 2.395 84.993-10.179 104.343-46.038 18.724-34.699.388-75.24-21.041-108.338-19.153-29.582-48.062-52.553-83.302-52.826-35.683-.277-67.976 20.472-85.572 51.516-17.352 30.614-16.406 67.656.544 98.495 17.634 32.083 48.481 55.039 85.028 57.191" fill="rgba(255, 255, 255, 0.24)" class="triangle-float1"/><path d="M135.019 351.931c15.645-.929 27.192-12.309 35.734-25.449 9.705-14.929 19.852-32.231 12.221-48.319-8.428-17.766-28.292-27.233-47.955-27.014-19.293.215-36.862 11.146-46.142 28.062-8.944 16.302-7.744 36.299 2.218 51.999 9.296 14.651 26.603 21.749 43.924 20.721" fill="rgba(255, 255, 255, 0.24)" style="animation:float2 4s infinite"/><path d="M1361.271 590.161c60.689-.637 116.856-36.105 143.764-90.506 24.421-49.373 3.671-104.52-23.637-152.357-27.625-48.393-64.404-99.445-120.127-99.481-55.761-.036-92.241 51.195-120.392 99.328-28.535 48.79-53.785 104.935-28.694 155.583 27.411 55.329 87.342 88.081 149.086 87.433M899.19 328.393c20.033-1.396 35.005-16.49 44.707-34.073 9.311-16.874 12.77-36.76 3.787-53.81-9.589-18.201-27.922-30.984-48.494-31.047-20.671-.063-38.121 13.179-49.01 30.749-11.614 18.74-18.683 41.924-7.972 61.195 10.943 19.688 34.512 28.552 56.982 26.986m-26.869 352.431c40.884 3.527 84.232-14.015 103.216-50.396 18.027-34.546.713-74.71-21.075-107.016-18.809-27.889-48.516-45.058-82.141-46.026-35.574-1.025-73.489 9.932-90.766 41.046-16.923 30.475-2.621 66.074 14.386 96.502 17.583 31.459 40.474 62.792 76.38 65.89" fill="rgba(255, 255, 255, 0.24)" class="triangle-float1"/></g><defs><style>@keyframes float1{0%{transform:translate(0,0)}50%{transform:translate(-10px,0)}}@keyframes float2{0%{transform:translate(0,0)}50%{transform:translate(-5px,-5px)}}@keyframes float3{0%{transform:translate(0,0)}50%{transform:translate(0,-10px)}}.triangle-float1{animation:float1 5s infinite}</style><mask id="SvgjsMask1470"><path fill="#fff" d="M0 0h1500v560H0z"/></mask></defs></svg>