<svg xmlns="http://www.w3.org/2000/svg" version="1.1" xmlns:xlink="http://www.w3.org/1999/xlink" xmlns:svgjs="http://svgjs.com/svgjs" width="1500" height="560" preserveAspectRatio="none" viewBox="0 0 1500 560"><g mask="url(&quot;#SvgjsMask1470&quot;)" fill="none"><rect width="1500" height="560" x="0" y="0" fill="rgba(203, 11, 12, 1)"></rect><path d="M923.591,205.828C953.631,205.613,985.001,197.379,1000.385,171.576C1016.075,145.26,1010.756,112.288,995.042,85.987C979.767,60.421,953.352,41.921,923.591,43.047C895.407,44.113,875.565,66.952,860.926,91.06C845.499,116.466,830.624,146.602,844.868,172.69C859.492,199.473,893.077,206.046,923.591,205.828" fill="rgba(255, 255, 255, 0.24)" class="triangle-float3"></path><path d="M1154.421,383.289C1196.899,382.786,1234.603,359.434,1257.168,323.441C1281.408,284.776,1293.454,236.531,1271.514,196.516C1248.878,155.231,1201.503,136.375,1154.421,136.044C1106.685,135.708,1057.882,153.264,1034.438,194.848C1011.328,235.839,1022.095,286.232,1047.369,325.926C1070.674,362.528,1111.033,383.803,1154.421,383.289" fill="rgba(255, 255, 255, 0.24)" class="triangle-float1"></path><path d="M561.221,193.769C601.897,196.164,646.214,183.59,665.564,147.731C684.288,113.032,665.952,72.491,644.523,39.393C625.37,9.811,596.461,-13.16,561.221,-13.433C525.538,-13.71,493.245,7.039,475.649,38.083C458.297,68.697,459.243,105.739,476.193,136.578C493.827,168.661,524.674,191.617,561.221,193.769" fill="rgba(255, 255, 255, 0.24)" class="triangle-float1"></path><path d="M135.019,351.931C150.664,351.002,162.211,339.622,170.753,326.482C180.458,311.553,190.605,294.251,182.974,278.163C174.546,260.397,154.682,250.93,135.019,251.149C115.726,251.364,98.157,262.295,88.877,279.211C79.933,295.513,81.133,315.51,91.095,331.21C100.391,345.861,117.698,352.959,135.019,351.931" fill="rgba(255, 255, 255, 0.24)" class="triangle-float2"></path><path d="M1361.271,590.161C1421.96,589.524,1478.127,554.056,1505.035,499.655C1529.456,450.282,1508.706,395.135,1481.398,347.298C1453.773,298.905,1416.994,247.853,1361.271,247.817C1305.51,247.781,1269.03,299.012,1240.879,347.145C1212.344,395.935,1187.094,452.08,1212.185,502.728C1239.596,558.057,1299.527,590.809,1361.271,590.161" fill="rgba(255, 255, 255, 0.24)" class="triangle-float1"></path><path d="M899.19,328.393C919.223,326.997,934.195,311.903,943.897,294.32C953.208,277.446,956.667,257.56,947.684,240.51C938.095,222.309,919.762,209.526,899.19,209.463C878.519,209.4,861.069,222.642,850.18,240.212C838.566,258.952,831.497,282.136,842.208,301.407C853.151,321.095,876.72,329.959,899.19,328.393" fill="rgba(255, 255, 255, 0.24)" class="triangle-float1"></path><path d="M872.321,680.824C913.205,684.351,956.553,666.809,975.537,630.428C993.564,595.882,976.25,555.718,954.462,523.412C935.653,495.523,905.946,478.354,872.321,477.386C836.747,476.361,798.832,487.318,781.555,518.432C764.632,548.907,778.934,584.506,795.941,614.934C813.524,646.393,836.415,677.726,872.321,680.824" fill="rgba(255, 255, 255, 0.24)" class="triangle-float1"></path></g><defs><mask id="SvgjsMask1470"><rect width="1500" height="560" fill="#ffffff"></rect></mask><style>
            @keyframes float1 {
                0%{transform: translate(0, 0)}
                50%{transform: translate(-10px, 0)}
                100%{transform: translate(0, 0)}
            }

            .triangle-float1 {
                animation: float1 5s infinite;
            }

            @keyframes float2 {
                0%{transform: translate(0, 0)}
                50%{transform: translate(-5px, -5px)}
                100%{transform: translate(0, 0)}
            }

            .triangle-float2 {
                animation: float2 4s infinite;
            }

            @keyframes float3 {
                0%{transform: translate(0, 0)}
                50%{transform: translate(0, -10px)}
                100%{transform: translate(0, 0)}
            }

            .triangle-float3 {
                animation: float3 6s infinite;
            }
        </style></defs></svg>